<?xml version="1.0" standalone="no"?>
<!DOCTYPE svg PUBLIC "-//W3C//DTD SVG 20010904//EN"
 "http://www.w3.org/TR/2001/REC-SVG-20010904/DTD/svg10.dtd">
<svg version="1.0" xmlns="http://www.w3.org/2000/svg"
 width="429.000000pt" height="429.000000pt" viewBox="0 0 429.000000 429.000000"
 preserveAspectRatio="xMidYMid meet">
<metadata>
Created by potrace 1.11, written by Peter Selinger 2001-2013
</metadata>
<g transform="translate(0.000000,429.000000) scale(0.100000,-0.100000)"
fill="#000000" stroke="none">
<path d="M1970 4120 l0 -40 -40 0 -40 0 0 -90 0 -90 40 0 40 0 0 -85 0 -85
-40 0 -40 0 0 -40 0 -40 -45 0 -45 0 0 -45 0 -45 -40 0 -40 0 0 -130 0 -130
-45 0 -45 0 0 85 0 85 -45 0 -45 0 0 45 0 45 -85 0 -85 0 0 45 0 45 -170 0
-170 0 0 -45 0 -45 -85 0 -85 0 0 -45 0 -45 -45 0 -45 0 0 45 0 45 -40 0 -40
0 0 45 0 45 -45 0 -45 0 0 85 0 85 -45 0 -45 0 0 40 0 40 -125 0 -125 0 0 -40
0 -40 -45 0 -45 0 0 -85 0 -85 45 0 45 0 0 -45 0 -45 170 0 170 0 0 -45 0 -45
85 0 85 0 0 -255 0 -255 45 0 45 0 0 -45 0 -45 40 0 40 0 0 -40 0 -40 85 0 85
0 0 -45 0 -45 45 0 45 0 0 -40 0 -40 -130 0 -130 0 0 -45 0 -45 -40 0 -40 0 0
-40 0 -40 -45 0 -45 0 0 -215 0 -215 -215 0 -215 0 0 40 0 40 -85 0 -85 0 0
-40 0 -40 -40 0 -40 0 0 -45 0 -45 -45 0 -45 0 0 -85 0 -85 45 0 45 0 0 -45 0
-45 40 0 40 0 0 -40 0 -40 130 0 130 0 0 40 0 40 40 0 40 0 0 85 0 85 45 0 45
0 0 45 0 45 85 0 85 0 0 -45 0 -45 45 0 45 0 0 -40 0 -40 40 0 40 0 0 -45 0
-45 300 0 300 0 0 45 0 45 45 0 45 0 0 40 0 40 45 0 45 0 0 -40 0 -40 40 0 40
0 0 -45 0 -45 85 0 85 0 0 -85 0 -85 -40 0 -40 0 0 -130 0 -130 40 0 40 0 0
-85 0 -85 45 0 45 0 0 -40 0 -40 40 0 40 0 0 -45 0 -45 130 0 130 0 0 -85 0
-85 45 0 45 0 0 -85 0 -85 -45 0 -45 0 0 -45 0 -45 -40 0 -40 0 0 -130 0 -130
40 0 40 0 0 -40 0 -40 170 0 170 0 0 85 0 85 45 0 45 0 0 45 0 45 -45 0 -45 0
0 85 0 85 -85 0 -85 0 0 170 0 170 45 0 45 0 0 45 0 45 40 0 40 0 0 40 0 40
45 0 45 0 0 45 0 45 45 0 45 0 0 170 0 170 40 0 40 0 0 -40 0 -40 85 0 85 0 0
-45 0 -45 175 0 175 0 0 45 0 45 40 0 40 0 0 40 0 40 85 0 85 0 0 -40 0 -40
45 0 45 0 0 -45 0 -45 45 0 45 0 0 -85 0 -85 40 0 40 0 0 -45 0 -45 130 0 130
0 0 175 0 175 -170 0 -170 0 0 40 0 40 -90 0 -90 0 0 260 0 260 -40 0 -40 0 0
40 0 40 -45 0 -45 0 0 45 0 45 -85 0 -85 0 0 40 0 40 -85 0 -85 0 0 45 0 45
45 0 45 0 0 45 0 45 40 0 40 0 0 40 0 40 45 0 45 0 0 130 0 130 125 0 125 0 0
40 0 40 45 0 45 0 0 90 0 90 -45 0 -45 0 0 40 0 40 -85 0 -85 0 0 -40 0 -40
-40 0 -40 0 0 -45 0 -45 -45 0 -45 0 0 45 0 45 -40 0 -40 0 0 40 0 40 -90 0
-90 0 0 45 0 45 -40 0 -40 0 0 -45 0 -45 -130 0 -130 0 0 -40 0 -40 -85 0 -85
0 0 40 0 40 -45 0 -45 0 0 215 0 215 -40 0 -40 0 0 85 0 85 -85 0 -85 0 0 45
0 45 -90 0 -90 0 0 40 0 40 45 0 45 0 0 130 0 130 -130 0 -130 0 0 -40z m-170
-945 l0 -45 45 0 45 0 0 -40 0 -40 40 0 40 0 0 -45 0 -45 175 0 175 0 0 45 0
45 40 0 40 0 0 40 0 40 85 0 85 0 0 -40 0 -40 45 0 45 0 0 -45 0 -45 40 0 40
0 0 -45 0 -45 -40 0 -40 0 0 -85 0 -85 40 0 40 0 0 -85 0 -85 45 0 45 0 0 -40
0 -40 45 0 45 0 0 -45 0 -45 125 0 125 0 0 -85 0 -85 -85 0 -85 0 0 -45 0 -45
-40 0 -40 0 0 -130 0 -130 -45 0 -45 0 0 -40 0 -40 -45 0 -45 0 0 40 0 40
-125 0 -125 0 0 45 0 45 -85 0 -85 0 0 -45 0 -45 -90 0 -90 0 0 -40 0 -40 -40
0 -40 0 0 -45 0 -45 -45 0 -45 0 0 45 0 45 -40 0 -40 0 0 40 0 40 -85 0 -85 0
0 305 0 305 -45 0 -45 0 0 40 0 40 -45 0 -45 0 0 45 0 45 -125 0 -125 0 0 40
0 40 40 0 40 0 0 45 0 45 85 0 85 0 0 40 0 40 45 0 45 0 0 130 0 130 45 0 45
0 0 45 0 45 40 0 40 0 0 -45z"/>
</g>
</svg>
